<?xml version="1.0"?>
<svg xmlns="http://www.w3.org/2000/svg" width="512" height="512" viewBox="0 0 128 128"><g><path d="M124.151,81.9a1.747,1.747,0,0,0-2.019-1.43l-13.969,2.384L94.846,75.169,116.552,65.6a1.75,1.75,0,0,0,0-3.2l-21.7-9.568,13.312-7.686,13.969,2.384a1.747,1.747,0,0,0,2.019-1.43L125.5,38.21a1.75,1.75,0,0,0-1.43-2.02l-9.184-1.567,3.234-8.738a1.752,1.752,0,0,0-1.034-2.249l-7.5-2.777a1.75,1.75,0,0,0-2.249,1.034l-4.92,13.291L89.1,42.868l2.563-23.577a1.749,1.749,0,0,0-2.773-1.6L69.75,31.7V18.879L78.8,7.973a1.751,1.751,0,0,0-.23-2.464L72.414.4A1.751,1.751,0,0,0,69.95.629L64,7.8,58.05.629A1.752,1.752,0,0,0,55.585.4L49.429,5.509A1.749,1.749,0,0,0,49.2,7.973l9.05,10.906V31.7L39.118,17.689a1.749,1.749,0,0,0-2.773,1.6l2.564,23.585L25.587,35.184l-4.92-13.291a1.748,1.748,0,0,0-2.248-1.034l-7.5,2.777a1.752,1.752,0,0,0-1.034,2.249l3.235,8.738L3.933,36.19A1.75,1.75,0,0,0,2.5,38.21L3.848,46.1a1.747,1.747,0,0,0,2.019,1.43l13.97-2.384L33.153,52.83,11.457,62.4a1.75,1.75,0,0,0,0,3.2l21.7,9.569L19.837,82.858,5.867,80.474A1.747,1.747,0,0,0,3.848,81.9L2.5,89.79a1.75,1.75,0,0,0,1.431,2.02l9.184,1.567-3.235,8.738a1.752,1.752,0,0,0,1.034,2.249l7.5,2.777a1.75,1.75,0,0,0,2.248-1.034l4.92-13.291,13.321-7.69L36.344,108.7a1.75,1.75,0,0,0,2.774,1.6L58.25,96.3v12.816L49.2,120.021a1.749,1.749,0,0,0,.229,2.464l6.156,5.109a1.752,1.752,0,0,0,2.465-.229L64,120.194l5.95,7.171a1.751,1.751,0,0,0,2.464.229l6.156-5.109a1.751,1.751,0,0,0,.23-2.464l-9.05-10.906V96.292l19.142,14.013a1.75,1.75,0,0,0,2.773-1.6L89.1,85.132l13.31,7.684,4.92,13.291a1.75,1.75,0,0,0,2.249,1.034l7.5-2.777a1.752,1.752,0,0,0,1.034-2.249l-3.234-8.738,9.184-1.567a1.75,1.75,0,0,0,1.43-2.02Zm-11.936,8.378a1.75,1.75,0,0,0-1.347,2.332l3.359,9.075-4.22,1.563-4.531-12.243a1.762,1.762,0,0,0-.767-.908L87.864,80.376a1.75,1.75,0,0,0-2.614,1.7l2.507,23.055L69.034,91.43a1.75,1.75,0,0,0-2.784,1.412v16.905a1.752,1.752,0,0,0,.4,1.117l8.336,10.046-3.463,2.873-6.179-7.447a1.751,1.751,0,0,0-2.694,0l-6.179,7.447-3.463-2.873,8.336-10.046a1.752,1.752,0,0,0,.4-1.117v-16.9a1.751,1.751,0,0,0-2.784-1.412l-18.713,13.7,2.508-23.063a1.75,1.75,0,0,0-2.615-1.7L23.29,90.1a1.756,1.756,0,0,0-.766.908l-4.531,12.243-4.221-1.563,3.359-9.075a1.749,1.749,0,0,0-1.346-2.332L6.247,88.654,7,84.218l12.868,2.2a1.754,1.754,0,0,0,1.169-.21L37.9,76.473a1.75,1.75,0,0,0-.169-3.117L16.5,64l21.221-9.356a1.75,1.75,0,0,0,.169-3.117L21.04,41.8a1.754,1.754,0,0,0-1.169-.21L7,43.782l-.756-4.436,9.538-1.628a1.749,1.749,0,0,0,1.346-2.332l-3.359-9.075,4.221-1.563,4.531,12.243a1.756,1.756,0,0,0,.766.908l16.857,9.732a1.751,1.751,0,0,0,2.615-1.7L40.253,22.857l18.713,13.7a1.751,1.751,0,0,0,2.784-1.412v-16.9a1.753,1.753,0,0,0-.4-1.118L53.011,7.084l3.463-2.873,6.179,7.447a1.81,1.81,0,0,0,2.694,0l6.179-7.447,3.463,2.873L66.653,17.13a1.753,1.753,0,0,0-.4,1.118v16.9a1.75,1.75,0,0,0,2.784,1.413L87.757,22.858,85.25,45.92a1.749,1.749,0,0,0,2.614,1.7L104.709,37.9a1.762,1.762,0,0,0,.767-.908l4.531-12.243,4.22,1.563-3.359,9.075a1.75,1.75,0,0,0,1.347,2.332l9.538,1.628L121,43.782l-12.866-2.2a1.762,1.762,0,0,0-1.17.21L90.113,51.521a1.75,1.75,0,0,0,.169,3.117L111.508,64,90.277,73.359a1.75,1.75,0,0,0-.169,3.117l16.852,9.729a1.753,1.753,0,0,0,1.17.21L121,84.218l.757,4.436Z"/><path d="M60.875,69.412a1.753,1.753,0,0,0-1.75,0l-10.393,6a1.749,1.749,0,0,0-.864,1.326L46.259,91.531a1.75,1.75,0,0,0,2.773,1.6l12-8.785a1.749,1.749,0,0,0,.716-1.412V70.928A1.752,1.752,0,0,0,60.875,69.412ZM58.25,82.047l-8.083,5.917L51.251,78l7-4.041Z"/><path d="M56.875,65.516a1.751,1.751,0,0,0,0-3.032l-10.4-6A1.747,1.747,0,0,0,44.9,56.4l-13.609,6a1.75,1.75,0,0,0,0,3.2l13.614,6a1.747,1.747,0,0,0,1.581-.086ZM45.5,68.041,36.33,64,45.5,59.956,52.5,64Z"/><path d="M97.768,64a1.751,1.751,0,0,0-1.044-1.6l-13.616-6a1.748,1.748,0,0,0-1.581.086l-10.4,6.005a1.751,1.751,0,0,0,0,3.032l10.4,6a1.76,1.76,0,0,0,.875.234A1.735,1.735,0,0,0,83.1,71.6L96.724,65.6A1.751,1.751,0,0,0,97.768,64ZM82.5,68.043,75.5,64l7.009-4.046L91.68,64Z"/><path d="M67.125,58.588a1.753,1.753,0,0,0,1.75,0l10.4-6.006a1.75,1.75,0,0,0,.865-1.327l1.608-14.793a1.75,1.75,0,0,0-2.774-1.6L66.966,43.654a1.751,1.751,0,0,0-.716,1.412V57.072A1.752,1.752,0,0,0,67.125,58.588ZM69.75,45.954l8.093-5.924L76.76,49.994l-7.01,4.047Z"/><path d="M61.034,43.647l-12-8.785a1.749,1.749,0,0,0-2.773,1.6l1.609,14.8a1.751,1.751,0,0,0,.865,1.327l10.392,6a1.75,1.75,0,0,0,2.625-1.516V45.059A1.751,1.751,0,0,0,61.034,43.647ZM58.25,54.041l-7-4.04L50.167,40.03l8.083,5.917Z"/><path d="M79.278,75.419l-10.4-6.007a1.75,1.75,0,0,0-2.625,1.516v12a1.751,1.751,0,0,0,.716,1.412l12.011,8.793a1.75,1.75,0,0,0,2.774-1.6L80.143,76.745A1.746,1.746,0,0,0,79.278,75.419ZM69.75,82.04V73.959l7.01,4.047,1.083,9.958Z"/></g></svg>
