<?xml version="1.0" encoding="utf-8"?>
<!-- Generator: Adobe Illustrator 24.1.3, SVG Export Plug-In . SVG Version: 6.00 Build 0)  -->
<svg version="1.1" id="Capa_1" xmlns="http://www.w3.org/2000/svg" xmlns:xlink="http://www.w3.org/1999/xlink" x="0px" y="0px"
	 viewBox="0 0 418.1 418.1" style="enable-background:new 0 0 418.1 418.1;" xml:space="preserve">
<g>
	<g>
		<path d="M367.3,234.8c-44.7-51.4-114.4-31.8-170.1-13.5c-32.4,10.4-65.5,22.6-100.4,23.3c-44.1,0.6-71-32.4-89.4-68.5
			c-1.8-3.7-8.6-1.2-7.3,3.1c25.7,67.9,77.7,88.7,145.7,72.2c70.4-17.1,148.7-65.5,212.4-8C364.3,249.5,372.9,240.9,367.3,234.8z"/>
		<path d="M383.9,201.7c-46.5-56.9-114.4-44.7-177.5-24.5c-33.7,11-67.3,24.5-103.4,26.9c-41,3.1-67.3-21.4-83.8-56.9
			c-1.8-4.3-9.8-1.2-8,3.1c62.4,170.7,265-58.8,362.3,60.6C380.2,218.3,389.4,208.5,383.9,201.7z"/>
	</g>
</g>
</svg>
