<?xml version="1.0" encoding="utf-8"?>
<!-- Generator: Adobe Illustrator 24.1.3, SVG Export Plug-In . SVG Version: 6.00 Build 0)  -->
<svg version="1.1" id="Camada_1" xmlns="http://www.w3.org/2000/svg" xmlns:xlink="http://www.w3.org/1999/xlink" x="0px" y="0px"
	 viewBox="0 0 481 481" style="enable-background:new 0 0 481 481;" xml:space="preserve">
<style type="text/css">
	.st0{fill:#FFFFFF;}
</style>
<path d="M374.3,318.5c-1.8-38.2-21.3-84.9-45.7-110.6l11.9-134.3c0.2-2.8-1-5.4-3.2-7.1l-8.1-6.1L315.6,6.1c-0.7-2.8-2.8-5-5.5-5.8
	c-2.7-0.8-5.7-0.1-7.8,1.9s-2.9,4.9-2.2,7.7l9,35.9c-18.1-10.6-40.9-8.7-56.9,4.7l-0.1,0.1c-3.3,2.7-9.3,7.8-11.6,7.8
	s-8.3-5-11.6-7.8c0,0,0,0-0.1-0.1c-16.9-14.1-41-15.5-59.3-3.2l8.4-37.6c0.9-4.3-1.8-8.5-6.1-9.5c-4.3-1-8.5,1.7-9.5,6l-12.5,55.6
	l-6.2,4.7c-2.2,1.7-3.4,4.3-3.2,7.1l11.9,134.3c-24.4,25.7-43.9,72.4-45.7,110.6c0,0.1,0,0.1,0,0.2l-3.9,154
	c-0.1,2.2,0.8,4.3,2.3,5.8c1.5,1.6,3.6,2.5,5.7,2.5h259.6c2.2,0,4.2-0.9,5.7-2.5c1.5-1.6,2.3-3.6,2.3-5.8l-3.9-154
	C374.3,318.6,374.3,318.6,374.3,318.5z M168.6,210.5l-1.2-13.7l18.7,6c20.8,6.8,37.6,10.1,54.4,10.1s33.5-3.4,54.4-10.2l18.7-5.9
	l-1.2,13.7c-0.2,2.3,0.7,4.6,2.4,6.2c5.7,5.7,10.8,11.9,15.1,18.7l-49.8,13.3c-32.6,8.7-46.6,8.7-79.2,0l-49.8-13.3
	c4.3-6.7,9.4-13,15.1-18.6C167.9,215.1,168.8,212.8,168.6,210.5z M218.6,62.8C218.6,62.8,218.6,62.8,218.6,62.8
	c8.4,7,14.5,11.6,21.9,11.6s13.5-4.6,21.9-11.5c0,0,0,0,0.1-0.1c12-10,29.3-10.4,41.8-1.1l20,14.9l-9.1,102.7l-25.2,8.2
	c-38.8,12.7-60.1,12.7-98.9,0l-25.2-8.2l-9.1-102.7l20-14.9C189.3,52.3,206.6,52.8,218.6,62.8z M118.9,465l3.7-145.8
	c1.1-22.1,8.9-47.9,20.2-69.5l54,14.4c17.6,4.7,30.7,7.1,43.7,7.1s26.2-2.4,43.7-7.1l54-14.5c11.2,21.7,19.1,47.5,20.2,69.6
	l3.7,145.8H118.9z"/>
<polygon class="st0" points="170.2,201.9 212.3,231.9 313.3,200.2 315.3,176.8 165.8,178.1 167.4,196.8 "/>
<path class="st0" d="M235.6,240.5"/>
<polyline class="st0" points="152.8,232.8 148.4,238.1 146,242.4 142,251.2 249.3,286.6 325.3,263 338.9,251.1 329.9,235.5 "/>
</svg>
