<?xml version="1.0" encoding="utf-8"?>
<!-- Generator: Adobe Illustrator 24.1.3, SVG Export Plug-In . SVG Version: 6.00 Build 0)  -->
<svg version="1.1" id="Camada_1" xmlns="http://www.w3.org/2000/svg" xmlns:xlink="http://www.w3.org/1999/xlink" x="0px" y="0px"
	 viewBox="0 0 512 512" style="enable-background:new 0 0 512 512;" xml:space="preserve">
<path d="M256,512c-116.3,0-191.5-84.8-191.5-216c0.3-70.3,19.3-139.2,55.1-199.7C157.2,34.2,205.7,0,256,0s98.8,34.2,136.4,96.3
	c35.8,60.5,54.8,129.4,55.1,199.7C447.5,427.2,372.3,512,256,512z M256,14C156,14,78.5,165.6,78.5,296c0,122.7,69.7,202,177.5,202
	s177.5-79.3,177.5-202C433.5,165.6,356,14,256,14z"/>
</svg>
