<?xml version="1.0" encoding="utf-8"?>
<!-- Generator: Adobe Illustrator 24.1.3, SVG Export Plug-In . SVG Version: 6.00 Build 0)  -->
<svg version="1.1" id="icons" xmlns="http://www.w3.org/2000/svg" xmlns:xlink="http://www.w3.org/1999/xlink" x="0px" y="0px"
	 viewBox="0 0 512 512" style="enable-background:new 0 0 512 512;" xml:space="preserve">
<path d="M432,359.9c0-57.6-22.6-91-44.4-123.4C369,208.8,349.7,180.1,344,135c0,0,0,0,0,0v0c-3.8-28.7-27.2-50.9-55.9-54.4v-0.1
	c-0.1,0-0.2,0-0.2,0c-1.7-0.4-3.5-0.5-5.3-0.6c-0.7,0.2-1.6,0.2-2.5,0c-1.2-0.3-2.8,0.3-4.1,0.3c-1,0-2,0.2-3,0.2
	c-0.3,0.1-0.6,0.1-0.8,0.1v0.1c-0.2,0-0.3,0-0.5,0.1c-28.5,3.7-51.7,25.8-55.5,54.3v0c0,0,0,0,0,0c-5.7,45.1-25,73.8-43.7,101.5
	c-21.8,32.4-44.3,65.8-44.4,123.4c0,0,0,0.1,0,0.1c0,83.8,68.2,152,152,152S432,443.8,432,359.9C432,360,432,360,432,359.9z
	 M280,496c-75,0-136-61-136-135.9c0,0,0,0,0-0.1c0-52.8,20.2-82.8,41.6-114.6c19.7-29.2,40.1-59.5,46.3-108.4
	c3.1-23.4,23.7-41,48-41h0c0,0,0.1,0,0.1,0c0,0,0.1,0,0.1,0c24.2,0.1,44.9,17.7,48,41c6.2,48.9,26.6,79.1,46.3,108.4
	C395.8,277.2,416,307.3,416,360c0,0,0,0,0,0.1C416,435,355,496,280,496z"/>
</svg>
