<?xml version="1.0" encoding="utf-8"?>
<!-- Generator: Adobe Illustrator 24.1.3, SVG Export Plug-In . SVG Version: 6.00 Build 0)  -->
<svg version="1.1" id="Capa_1" xmlns="http://www.w3.org/2000/svg" xmlns:xlink="http://www.w3.org/1999/xlink" x="0px" y="0px"
	 viewBox="0 0 480 480" style="enable-background:new 0 0 480 480;" xml:space="preserve">
<style type="text/css">
	.st0{fill:#FFFFFF;}
</style>
<g>
	<g>
		<path d="M240,0C107.5,0,0,107.5,0,240s107.5,240,240,240c132.5-0.1,239.9-107.5,240-240C480,107.5,372.5,0,240,0z M240,464
			C116.3,464,16,363.7,16,240S116.3,16,240,16c123.7,0.1,223.9,100.3,224,224C464,363.7,363.7,464,240,464z"/>
	</g>
</g>
<g>
	<g>
		<path class="st0" d="M349,179c-4.4,0-8,3.6-8,8v192c0,4.4,3.6,8,8,8s8-3.6,8-8V187C357,182.6,353.4,179,349,179z"/>
	</g>
</g>
<g>
	<g>
		<path d="M407.5,76.5c-3.1-3.2-11.3-0.1-18.4,6.8L82.2,382.8c-7.1,6.9-10.3,15-7.2,18.2c3.1,3.2,11.3,0.1,18.4-6.8L400.3,94.8
			C407.4,87.9,410.6,79.7,407.5,76.5z"/>
	</g>
</g>
</svg>
