<svg id="icons" enable-background="new 0 0 64 64" height="512" viewBox="0 0 64 64" width="512" xmlns="http://www.w3.org/2000/svg"><path d="m17.004 43.006v.002c.003 2.755 2.244 4.996 5 4.996h.997c.002.551.447.996.999.996s.997-.445.999-.996h3.001v11.996c0 2.206 1.794 4 4 4s4-1.794 4-4v-11.996h5v2.996c0 .553.447 1 1 1s1-.447 1-1v-3.098c2.276-.466 3.994-2.483 3.996-4.895 0-.001 0-.001 0-.002v-27.985c0-.007.004-.013.004-.02 0-8.271-6.729-15-15-15s-15 6.729-15 15c0 .007.004.013.004.02zm16.996 16.994c0 1.103-.897 2-2 2s-2-.897-2-2v-11.996h4zm-2-58c7.162 0 12.99 5.822 12.999 12.983 0 .005-.003.01-.003.015v28.006c0 1.654-1.346 3-3 3h-19.992c-1.654 0-3-1.346-3-3v-28.006c0-.005-.003-.01-.003-.015.009-7.161 5.837-12.983 12.999-12.983z"/><path d="m28.003 37.997c.553 0 1-.447 1-1v-19.997c0-.552-.447-1-1-1s-1 .448-1 1v19.997c0 .553.447 1 1 1z"/><path d="m36.001 37.997c.553 0 1-.447 1-1v-19.997c0-.552-.447-1-1-1s-1 .448-1 1v19.997c0 .553.447 1 1 1z"/></svg>