<svg height="481pt" viewBox="-102 0 481 481.915" width="481pt" xmlns="http://www.w3.org/2000/svg"><path d="m272.578125 319.105469c-1.851563-38.269531-21.320313-85.042969-45.789063-110.808594l11.917969-134.535156c.246094-2.761719-.960937-5.457031-3.183593-7.117188l-8.152344-6.085937-13.617188-54.464844c-.683594-2.78125-2.804687-4.988281-5.558594-5.78125-2.753906-.792969-5.722656-.050781-7.78125 1.945312-2.058593 1.996094-2.890624 4.941407-2.183593 7.71875l8.984375 35.941407c-18.105469-10.640625-40.949219-8.742188-57.050782 4.746093l-.066406.054688c-3.304687 2.753906-9.363281 7.792969-11.605468 7.792969-2.242188 0-8.300782-5.039063-11.605469-7.792969-.023438-.019531-.042969-.035156-.066407-.054688-16.902343-14.160156-41.113281-15.480468-59.457031-3.246093l8.433594-37.632813c.929687-4.296875-1.78125-8.535156-6.066406-9.496094-4.289063-.960937-8.550781 1.714844-9.542969 5.996094l-12.484375 55.699219-6.242187 4.660156c-2.222657 1.660157-3.425782 4.351563-3.183594 7.117188l11.921875 134.53125c-24.46875 25.765625-43.9375 72.539062-45.789063 110.804687 0 .0625 0 .125-.003906.183594l-3.945312 154.3125c-.058594 2.167969.753906 4.269531 2.257812 5.835938 1.503906 1.5625 3.570312 2.460937 5.742188 2.484374h260.070312c2.164062-.023437 4.226562-.917968 5.730469-2.472656 1.503906-1.558594 2.320312-3.65625 2.269531-5.820312l-3.941406-154.320313c-.007813-.058593-.011719-.136719-.011719-.195312zm-206.117187-108.1875-1.203126-13.699219 18.746094 6.023438c20.878906 6.808593 37.679688 10.167968 54.484375 10.167968 16.804688 0 33.605469-3.425781 54.484375-10.234375l18.746094-5.945312-1.195312 13.6875c-.160157 2.335937.710937 4.621093 2.382812 6.257812 5.710938 5.679688 10.785156 11.960938 15.136719 18.734375l-49.875 13.3125c-32.632813 8.742188-46.722657 8.71875-79.355469-.019531l-49.875-13.371094c4.351562-6.75 9.425781-13.003906 15.136719-18.652343 1.671875-1.636719 2.542969-3.925782 2.386719-6.261719zm50.058593-148.015625c.019531.019531.039063.035156.058594.050781 8.375 6.980469 14.425781 11.554687 21.914063 11.554687 7.488281 0 13.539062-4.574218 21.914062-11.554687.019531-.015625.039062-.03125.058594-.050781 12.019531-10.019532 29.347656-10.460938 41.859375-1.070313l20.050781 14.964844-9.117188 102.921875-25.242187 8.230469c-38.878906 12.675781-60.167969 12.675781-99.046875 0l-25.238281-8.230469-9.121094-102.921875 20.050781-14.964844c12.511719-9.390625 29.839844-8.945312 41.859375 1.070313zm-99.855469 403.015625 3.726563-146.074219c1.089844-22.097656 8.9375-47.960938 20.203125-69.664062l54.082031 14.46875c17.609375 4.71875 30.710938 7.070312 43.816407 7.070312 13.105468 0 26.210937-2.363281 43.816406-7.082031l54.082031-14.488281c11.265625 21.707031 19.113281 47.601562 20.203125 69.703124l3.726562 146.066407zm0 0"/></svg>